<?xml version="1.0" standalone="no"?>
<!DOCTYPE svg PUBLIC "-//W3C//DTD SVG 20010904//EN"
 "http://www.w3.org/TR/2001/REC-SVG-20010904/DTD/svg10.dtd">
<svg version="1.0" xmlns="http://www.w3.org/2000/svg"
 width="512.000000pt" height="512.000000pt" viewBox="0 0 512.000000 512.000000"
 preserveAspectRatio="xMidYMid meet">
<metadata>
Created by potrace 1.14, written by Peter Selinger 2001-2017
</metadata>
<g transform="translate(0.000000,512.000000) scale(0.100000,-0.100000)"
fill="#000000" stroke="none">
<path d="M415 5110 c-197 -41 -349 -188 -400 -385 -13 -52 -15 -307 -15 -2165
0 -2303 -4 -2154 57 -2280 38 -78 151 -189 233 -228 36 -16 92 -35 124 -41 84
-15 4208 -15 4292 0 97 18 180 64 260 143 76 76 114 142 139 242 14 54 15 300
13 2190 l-3 2129 -23 59 c-30 81 -73 144 -135 203 -63 59 -106 86 -183 116
l-59 22 -2130 1 c-1172 1 -2148 -2 -2170 -6z m2785 -730 c676 -28 985 -128
1083 -349 42 -95 30 -250 -27 -339 -83 -132 -224 -180 -491 -168 -571 25 -673
16 -713 -66 -16 -35 -29 -180 -42 -493 -18 -418 -68 -1080 -116 -1520 -58
-532 -154 -698 -415 -713 -214 -12 -356 98 -414 323 -35 134 -39 311 -26 1112
6 422 13 887 14 1033 2 292 -3 324 -52 338 -49 14 -305 5 -464 -17 -288 -38
-467 -29 -564 31 -120 73 -187 240 -149 371 63 217 386 351 1011 417 394 42
942 58 1365 40z"/>
</g>
</svg>
